<svg width="214" height="30" viewBox="0 0 214 30" fill="none" xmlns="http://www.w3.org/2000/svg">
<mask id="mask0_19_611" style="mask-type:alpha" maskUnits="userSpaceOnUse" x="0" y="0" width="214" height="30">
<rect width="214" height="30" fill="#D9D9D9"/>
</mask>
<g mask="url(#mask0_19_611)">
<path d="M17.1105 6.8653C19.0276 6.8653 20.4832 7.42425 21.5483 8.54215C22.6134 9.66006 23.1105 11.2321 23.1105 13.2583V22.2714C23.1105 23.0749 22.7554 23.4592 22.0099 23.4592C21.2288 23.4592 20.8383 23.0749 20.8383 22.2714V13.398C20.8383 11.8959 20.5187 10.778 19.8442 10.0094C19.1696 9.24084 18.211 8.85656 16.9329 8.85656C15.6903 8.85656 14.6963 9.24084 14.0217 10.0094C13.3471 10.778 12.9921 11.9308 12.9921 13.398V22.2365C12.9921 23.04 12.6016 23.4242 11.856 23.4242C11.1105 23.4242 10.7199 23.04 10.7199 22.2365V13.398C10.7199 11.8959 10.4004 10.778 9.72584 10.0094C9.05128 9.24084 8.09271 8.85656 6.8146 8.85656C5.53649 8.85656 4.57791 9.24084 3.90336 10.0094C3.2288 10.778 2.90927 11.9308 2.90927 13.398V22.2365C2.90927 23.04 2.51874 23.4242 1.77318 23.4242C1.02762 23.4242 0.637085 23.04 0.637085 22.2365V13.2583C0.637085 11.1972 1.16963 9.62512 2.23472 8.54215C3.29981 7.42425 4.79093 6.8653 6.67259 6.8653C7.91519 6.8653 8.94478 7.10984 9.83235 7.56399C10.7199 8.01813 11.3945 8.71682 11.856 9.59019H11.8915C12.8501 7.77359 14.5542 6.8653 17.1105 6.8653Z" fill="#5B4D86"/>
<path d="M33.0868 6.8653C35.217 6.8653 36.8856 7.49412 38.0572 8.75176C39.2288 10.0094 39.8324 11.7212 39.8324 13.9221V14.8653C39.8324 15.5989 39.4773 15.9832 38.7318 15.9832H28.6489V16.5072C28.6489 18.1841 29.0395 19.4417 29.8205 20.35C30.6016 21.2583 31.7377 21.6775 33.2288 21.6775C34.1874 21.6775 35.004 21.4679 35.6785 21.0836C36.3531 20.6644 36.8856 20.1055 37.3117 19.3718C37.5247 18.9876 37.8442 18.8129 38.2702 18.8129C38.5898 18.8129 38.8738 18.9177 39.0513 19.0924C39.2643 19.267 39.3708 19.5465 39.3708 19.8959C39.3708 20.0705 39.3353 20.2801 39.2288 20.4548C38.6608 21.5378 37.8797 22.3413 36.8146 22.9002C35.785 23.4592 34.5779 23.7387 33.1933 23.7387C31.0276 23.7387 29.359 23.1098 28.1519 21.8522C26.9448 20.5946 26.3412 18.8828 26.3412 16.647V13.957C26.3412 11.7561 26.9448 10.0443 28.1164 8.78669C29.359 7.49412 30.9921 6.8653 33.0868 6.8653ZM37.5602 14.0618C37.5602 12.3849 37.1697 11.1273 36.3886 10.219C35.6075 9.31071 34.5069 8.85656 33.0868 8.85656C31.6667 8.85656 30.5661 9.31071 29.785 10.219C29.004 11.1273 28.6489 12.4199 28.6489 14.0618H37.5602Z" fill="#5B4D86"/>
<path d="M49.0276 6.8653C51.1933 6.8653 52.8619 7.49412 54.069 8.75176C55.2761 10.0094 55.8797 11.7212 55.8797 13.9221V16.612C55.8797 18.8129 55.2761 20.5247 54.1045 21.7823C52.8974 23.04 51.2288 23.6688 49.0631 23.6688C47.0039 23.6688 45.4063 23.2146 44.2347 22.3063C43.0631 21.398 42.4951 20.1404 42.4951 18.5334V18.3587C42.4951 16.9614 42.9566 15.8784 43.8797 15.1448C44.8027 14.4111 46.1519 14.0269 47.927 14.0269H53.572C53.572 12.3849 53.1814 11.1273 52.4004 10.219C51.6193 9.31071 50.4832 8.8915 48.9921 8.8915C48.0335 8.8915 47.1814 9.1011 46.5069 9.48538C45.8323 9.9046 45.2998 10.4635 44.9803 11.1622C44.8027 11.5815 44.4832 11.7911 43.9862 11.7911C43.6667 11.7911 43.4181 11.6863 43.2051 11.4766C42.9921 11.267 42.8856 11.0225 42.8856 10.7081C42.8856 10.5334 42.9211 10.3587 42.9921 10.219C43.4891 9.13604 44.2702 8.29761 45.3353 7.73866C46.3649 7.14477 47.6075 6.8653 49.0276 6.8653ZM49.0276 21.6426C50.5187 21.6426 51.6548 21.1884 52.4359 20.3151C53.2169 19.4068 53.6075 18.1491 53.6075 16.4723V15.9133H47.927C45.8323 15.9133 44.7672 16.7168 44.7672 18.3587V18.4635C44.7672 19.4766 45.1223 20.2801 45.8678 20.8391C46.6134 21.3631 47.643 21.6426 49.0276 21.6426Z" fill="#5B4D86"/>
<path d="M65.714 6.8653C67.8087 6.8653 69.4773 7.45918 70.6489 8.68189C71.856 9.9046 72.4241 11.5815 72.4241 13.7474V22.2714C72.4241 23.0749 72.0335 23.4592 71.288 23.4592C70.5424 23.4592 70.1519 23.0749 70.1519 22.2714V13.8522C70.1519 12.2452 69.7613 11.0225 69.0158 10.1491C68.2347 9.27578 67.1341 8.82163 65.714 8.82163C64.2939 8.82163 63.1933 9.27578 62.4122 10.1491C61.6312 11.0225 61.2406 12.2452 61.2406 13.8522V22.2714C61.2406 23.0749 60.8501 23.4592 60.1045 23.4592C59.359 23.4592 58.9684 23.0749 58.9684 22.2714V13.7125C58.9684 11.5465 59.572 9.86966 60.7436 8.64695C61.9152 7.45918 63.5838 6.8653 65.714 6.8653Z" fill="#5B4D86"/>
<path d="M77.217 0.996277C77.6075 0.996277 77.927 1.10108 78.1756 1.34562C78.4241 1.55523 78.5661 1.86964 78.5661 2.28885V3.05741C78.5661 3.44169 78.4241 3.7561 78.1756 3.96571C77.927 4.17531 77.6075 4.31505 77.217 4.31505C76.8264 4.31505 76.5069 4.21025 76.2584 3.96571C76.0099 3.7561 75.8679 3.44169 75.8679 3.05741V2.28885C75.8679 1.86964 76.0099 1.55523 76.2584 1.34562C76.5069 1.13601 76.8264 0.996277 77.217 0.996277ZM77.217 7.03995C77.9625 7.03995 78.3531 7.42423 78.3531 8.19278V22.2714C78.3531 23.0749 77.9625 23.4592 77.217 23.4592C76.4714 23.4592 76.0809 23.0749 76.0809 22.2714V8.19278C76.0809 7.42423 76.4714 7.03995 77.217 7.03995Z" fill="#5B4D86"/>
<path d="M54.7436 15.0399C55.4891 15.0399 55.8797 15.4242 55.8797 16.1928V22.2714C55.8797 23.0749 55.4891 23.4591 54.7436 23.4591C53.998 23.4591 53.6075 23.0749 53.6075 22.2714V16.1928C53.6075 15.4242 53.9625 15.0399 54.7436 15.0399Z" fill="#5B4D86"/>
<path d="M88.7909 6.8653C90.8856 6.8653 92.5542 7.45918 93.7258 8.68189C94.9329 9.9046 95.501 11.5815 95.501 13.7474V22.2714C95.501 23.0749 95.1104 23.4592 94.3649 23.4592C93.6193 23.4592 93.2288 23.0749 93.2288 22.2714V13.8522C93.2288 12.2452 92.8382 11.0225 92.0927 10.1491C91.3116 9.27578 90.211 8.82163 88.7909 8.82163C87.3708 8.82163 86.2702 9.27578 85.4891 10.1491C84.7081 11.0225 84.3175 12.2452 84.3175 13.8522V22.2714C84.3175 23.0749 83.927 23.4592 83.1814 23.4592C82.4359 23.4592 82.0453 23.0749 82.0453 22.2714V13.7125C82.0453 11.5465 82.6489 9.86966 83.8205 8.64695C85.0276 7.45918 86.6962 6.8653 88.7909 6.8653Z" fill="#5B4D86"/>
<path d="M105.584 6.8653C107.75 6.8653 109.454 7.49412 110.661 8.75176C111.868 10.0094 112.507 11.7212 112.507 13.9221V22.0618C112.507 24.2627 111.903 25.9745 110.661 27.1972C109.418 28.4199 107.714 29.0487 105.513 29.0487C104.093 29.0487 102.85 28.7692 101.785 28.2452C100.72 27.6863 99.9389 26.9177 99.3708 25.9046C99.2998 25.7299 99.2288 25.5553 99.2288 25.3456C99.2288 24.9963 99.3353 24.7168 99.5483 24.5422C99.7614 24.3325 100.01 24.2277 100.329 24.2277C100.755 24.2277 101.075 24.4024 101.288 24.7867C101.643 25.4854 102.211 26.0443 102.921 26.4636C103.631 26.8828 104.519 27.0574 105.513 27.0574C107.039 27.0574 108.211 26.6033 109.028 25.7299C109.844 24.8566 110.27 23.5989 110.27 21.9919V20.6994H110.235C109.702 21.4679 109.028 22.0618 108.211 22.481C107.394 22.9002 106.4 23.1098 105.3 23.1098C103.276 23.1098 101.679 22.481 100.507 21.2583C99.3353 20.0356 98.7673 18.3238 98.7673 16.1579V13.957C98.7673 11.7561 99.3708 10.0443 100.578 8.78669C101.714 7.49412 103.418 6.8653 105.584 6.8653ZM105.584 21.0836C107.075 21.0836 108.211 20.6295 109.028 19.7561C109.844 18.8828 110.235 17.6251 110.235 16.0181V13.9919C110.235 12.3151 109.844 11.0574 109.028 10.1491C108.211 9.24084 107.075 8.82163 105.584 8.82163C104.093 8.82163 102.957 9.27578 102.14 10.1491C101.359 11.0574 100.968 12.3151 100.968 13.9919V15.9832C100.968 17.5902 101.359 18.8478 102.176 19.7212C102.957 20.6295 104.093 21.0836 105.584 21.0836Z" fill="#5B4D86"/>
<path d="M128.199 18.8128C128.199 20.2801 127.631 21.4679 126.495 22.3412C125.359 23.2146 123.797 23.6687 121.844 23.6687C120.318 23.6687 119.004 23.4242 117.903 22.9002C116.803 22.3762 115.986 21.6775 115.489 20.7692C115.383 20.5596 115.312 20.35 115.312 20.1753C115.312 19.826 115.418 19.5465 115.631 19.3718C115.844 19.1622 116.093 19.0574 116.412 19.0574C116.661 19.0574 116.838 19.1273 116.98 19.2321C117.122 19.3369 117.229 19.4766 117.3 19.5814C117.726 20.2801 118.329 20.8041 119.11 21.1535C119.927 21.5377 120.815 21.7124 121.88 21.7124C123.122 21.7124 124.081 21.4679 124.791 20.9439C125.501 20.4198 125.856 19.7211 125.856 18.8478C125.856 18.0094 125.536 17.4155 124.897 16.9963C124.258 16.577 123.122 16.3325 121.489 16.2277C119.359 16.088 117.832 15.6687 116.945 14.9701C116.057 14.2714 115.631 13.1884 115.631 11.7211C115.631 10.2539 116.199 9.10106 117.3 8.2277C118.4 7.35434 119.927 6.93512 121.88 6.93512C123.229 6.93512 124.365 7.17966 125.323 7.63381C126.282 8.08796 126.992 8.75171 127.454 9.66001C127.525 9.83468 127.596 10.0094 127.596 10.219C127.596 10.5683 127.489 10.8129 127.276 11.0225C127.063 11.1971 126.815 11.3019 126.495 11.3019C126.069 11.3019 125.75 11.1273 125.537 10.743C125.181 10.184 124.684 9.72988 124.045 9.41547C123.406 9.10106 122.625 8.92639 121.773 8.92639C120.531 8.92639 119.608 9.17093 118.933 9.66001C118.258 10.1491 117.939 10.8478 117.939 11.7561C117.939 12.1404 118.01 12.4548 118.116 12.7342C118.258 13.0137 118.471 13.2233 118.791 13.4329C119.11 13.6076 119.536 13.7473 120.069 13.8871C120.602 13.9919 121.276 14.0967 122.057 14.1666C122.767 14.2364 123.477 14.3063 124.187 14.4111C124.897 14.5159 125.536 14.7255 126.105 15.0399C126.673 15.3543 127.134 15.8085 127.525 16.4024C127.986 16.9264 128.199 17.7648 128.199 18.8128Z" fill="#EE7623"/>
<path d="M137.963 6.8653C140.128 6.8653 141.832 7.49412 143.039 8.75176C144.247 10.0094 144.85 11.7212 144.85 13.9221V16.7518C144.85 18.9177 144.282 20.5946 143.11 21.8173C141.939 23.04 140.341 23.6688 138.318 23.6688C136.081 23.6688 134.448 22.8653 133.383 21.2932H133.347V27.6513C133.347 28.4548 132.957 28.8391 132.211 28.8391C131.465 28.8391 131.075 28.4548 131.075 27.6513V13.8871C131.075 11.6863 131.679 9.97447 132.921 8.71682C134.093 7.49412 135.797 6.8653 137.963 6.8653ZM142.542 14.0269C142.542 12.35 142.152 11.0924 141.371 10.1841C140.59 9.27578 139.454 8.85656 137.927 8.85656C136.436 8.85656 135.3 9.31071 134.483 10.1841C133.667 11.0924 133.276 12.35 133.276 14.0269V16.612C133.276 18.219 133.667 19.4417 134.483 20.35C135.3 21.2234 136.436 21.6775 137.927 21.6775C139.383 21.6775 140.519 21.2234 141.335 20.35C142.152 19.4766 142.542 18.219 142.542 16.612V14.0269Z" fill="#EE7623"/>
<path d="M155.394 6.86528C157.347 6.86528 158.909 7.45916 160.045 8.68187C161.181 9.90458 161.75 11.5814 161.75 13.7124V22.2714C161.75 22.6207 161.643 22.9351 161.43 23.1448C161.217 23.3544 160.933 23.4592 160.578 23.4592C159.832 23.4592 159.477 23.0749 159.477 22.2714V13.7823C159.477 12.1753 159.087 10.9526 158.341 10.1142C157.56 9.27576 156.46 8.82161 155.039 8.82161C153.726 8.82161 152.696 9.17095 151.951 9.90458C151.17 10.6382 150.744 11.6862 150.602 13.0487V22.2365C150.602 23.04 150.211 23.4242 149.465 23.4242C148.72 23.4242 148.329 23.04 148.329 22.2365V2.07925C148.329 1.27576 148.72 0.891479 149.465 0.891479C150.211 0.891479 150.602 1.27576 150.602 2.07925V9.17095H150.637C151.17 8.43733 151.809 7.84344 152.625 7.45916C153.406 7.03995 154.329 6.86528 155.394 6.86528Z" fill="#EE7623"/>
<path d="M171.69 6.8653C173.821 6.8653 175.489 7.49412 176.661 8.75176C177.832 10.0094 178.436 11.7212 178.436 13.9221V14.8653C178.436 15.5989 178.081 15.9832 177.335 15.9832H167.252V16.5072C167.252 18.1841 167.643 19.4417 168.424 20.35C169.205 21.2583 170.341 21.6775 171.832 21.6775C172.791 21.6775 173.607 21.4679 174.282 21.0836C174.957 20.6644 175.489 20.1055 175.915 19.3718C176.128 18.9876 176.448 18.8129 176.874 18.8129C177.193 18.8129 177.477 18.9177 177.655 19.0924C177.868 19.267 177.974 19.5465 177.974 19.8959C177.974 20.0705 177.939 20.2801 177.832 20.4548C177.264 21.5378 176.483 22.3413 175.418 22.9002C174.353 23.4592 173.181 23.7387 171.797 23.7387C169.631 23.7387 167.963 23.1098 166.755 21.8522C165.548 20.5946 164.945 18.8828 164.945 16.647V13.957C164.945 11.7561 165.548 10.0443 166.72 8.78669C167.927 7.49412 169.56 6.8653 171.69 6.8653ZM176.164 14.0618C176.164 12.3849 175.773 11.1273 174.992 10.219C174.211 9.31071 173.11 8.85656 171.69 8.85656C170.27 8.85656 169.17 9.31071 168.389 10.219C167.607 11.1273 167.252 12.4199 167.252 14.0618H176.164Z" fill="#EE7623"/>
<path d="M192.318 10.4635C192.318 10.7779 192.211 11.0225 192.034 11.1971C191.856 11.3718 191.572 11.4766 191.252 11.4766C190.755 11.4766 190.4 11.2321 190.223 10.7779C189.69 9.48534 188.661 8.82159 187.134 8.82159C186.034 8.82159 185.217 9.136 184.613 9.79975C184.01 10.4635 183.726 11.4067 183.726 12.6294V22.2015C183.726 23.005 183.335 23.3893 182.59 23.3893C181.844 23.3893 181.454 23.005 181.454 22.2015V12.5945C181.454 10.7779 181.951 9.3456 182.98 8.3325C183.974 7.3194 185.394 6.83032 187.17 6.83032C188.377 6.83032 189.442 7.07486 190.329 7.59888C191.217 8.1229 191.856 8.85652 192.247 9.79975C192.282 10.0094 192.318 10.219 192.318 10.4635Z" fill="#EE7623"/>
<path d="M201.264 6.8653C203.394 6.8653 205.063 7.49412 206.235 8.75176C207.406 10.0094 208.01 11.7212 208.01 13.9221V14.8653C208.01 15.5989 207.655 15.9832 206.909 15.9832H196.826V16.5072C196.826 18.1841 197.217 19.4417 197.998 20.35C198.779 21.2583 199.915 21.6775 201.406 21.6775C202.365 21.6775 203.181 21.4679 203.856 21.0836C204.531 20.6644 205.063 20.1055 205.489 19.3718C205.702 18.9876 206.022 18.8129 206.448 18.8129C206.767 18.8129 207.051 18.9177 207.229 19.0924C207.442 19.267 207.548 19.5465 207.548 19.8959C207.548 20.0705 207.513 20.2801 207.406 20.4548C206.838 21.5378 206.057 22.3413 204.992 22.9002C203.927 23.4592 202.755 23.7387 201.371 23.7387C199.205 23.7387 197.536 23.1098 196.329 21.8522C195.122 20.5946 194.519 18.8828 194.519 16.647V13.957C194.519 11.7561 195.122 10.0443 196.294 8.78669C197.501 7.49412 199.17 6.8653 201.264 6.8653ZM205.738 14.0618C205.738 12.3849 205.347 11.1273 204.566 10.219C203.785 9.31071 202.684 8.85656 201.264 8.85656C199.844 8.85656 198.744 9.31071 197.963 10.219C197.181 11.1273 196.826 12.4199 196.826 14.0618H205.738Z" fill="#EE7623"/>
<path d="M213.974 21.4329C213.974 22.2364 213.335 22.8652 212.483 22.8652C211.667 22.8652 210.992 22.2364 210.992 21.4329C210.992 20.6294 211.667 20.0006 212.483 20.0006C213.335 20.0006 213.974 20.6294 213.974 21.4329ZM211.347 21.4329C211.347 22.0617 211.809 22.5858 212.483 22.5858C213.122 22.5858 213.584 22.0967 213.584 21.4679C213.584 20.839 213.122 20.315 212.483 20.315C211.844 20.2801 211.347 20.8041 211.347 21.4329ZM212.235 22.1666H211.915V20.7342C212.057 20.6993 212.235 20.6993 212.483 20.6993C212.767 20.6993 212.874 20.7342 212.98 20.8041C213.051 20.874 213.122 20.9788 213.122 21.1185C213.122 21.2583 213.016 21.398 212.838 21.4329C212.98 21.4679 213.051 21.5727 213.087 21.7823C213.122 21.9919 213.158 22.0967 213.193 22.1316H212.838C212.803 22.0967 212.767 21.9569 212.732 21.7823C212.696 21.6425 212.625 21.5727 212.448 21.5727H212.306V22.1666H212.235ZM212.27 21.3631H212.412C212.59 21.3631 212.732 21.2932 212.732 21.1534C212.732 21.0137 212.625 20.9438 212.412 20.9438C212.341 20.9438 212.27 20.9438 212.235 20.9788V21.3631H212.27Z" fill="#EE7623"/>
</g>
</svg>
